<mxfile host="app.diagrams.net" modified="2024-05-13T21:31:15.603Z" agent="Mozilla/5.0 (Windows NT 10.0; Win64; x64) AppleWebKit/537.36 (KHTML, like Gecko) Chrome/124.0.0.0 Safari/537.36" version="24.4.0" etag="rVBh8BCmHk04sb_qGPeu" type="device">
  <diagram id="4s5Y-NiarmcE9zURS3Ud" name="PÃ¡gina-1">
    <mxGraphModel dx="2117" dy="653" grid="1" gridSize="10" guides="1" tooltips="1" connect="1" arrows="1" fold="1" page="1" pageScale="1" pageWidth="827" pageHeight="1169" math="0" shadow="0">
      <root>
        <mxCell id="0" />
        <mxCell id="1" parent="0" />
        <mxCell id="4GTNjFkw8A-jL-CNcYwr-3" style="edgeStyle=orthogonalEdgeStyle;rounded=0;orthogonalLoop=1;jettySize=auto;html=1;exitX=0.5;exitY=1;exitDx=0;exitDy=0;entryX=0.5;entryY=0;entryDx=0;entryDy=0;" edge="1" parent="1" source="4GTNjFkw8A-jL-CNcYwr-1" target="4GTNjFkw8A-jL-CNcYwr-2">
          <mxGeometry relative="1" as="geometry" />
        </mxCell>
        <mxCell id="4GTNjFkw8A-jL-CNcYwr-1" value="Algoritmo Practico 2 ejer 4" style="ellipse;whiteSpace=wrap;html=1;" vertex="1" parent="1">
          <mxGeometry x="340" y="20" width="166" height="80" as="geometry" />
        </mxCell>
        <mxCell id="4GTNjFkw8A-jL-CNcYwr-33" value="" style="edgeStyle=orthogonalEdgeStyle;rounded=0;orthogonalLoop=1;jettySize=auto;html=1;" edge="1" parent="1" source="4GTNjFkw8A-jL-CNcYwr-2" target="4GTNjFkw8A-jL-CNcYwr-4">
          <mxGeometry relative="1" as="geometry" />
        </mxCell>
        <mxCell id="4GTNjFkw8A-jL-CNcYwr-2" value="entrada n" style="rounded=0;whiteSpace=wrap;html=1;" vertex="1" parent="1">
          <mxGeometry x="363" y="130" width="120" height="60" as="geometry" />
        </mxCell>
        <mxCell id="4GTNjFkw8A-jL-CNcYwr-31" style="edgeStyle=orthogonalEdgeStyle;rounded=0;orthogonalLoop=1;jettySize=auto;html=1;exitX=1;exitY=0.5;exitDx=0;exitDy=0;" edge="1" parent="1" source="4GTNjFkw8A-jL-CNcYwr-4" target="4GTNjFkw8A-jL-CNcYwr-5">
          <mxGeometry relative="1" as="geometry" />
        </mxCell>
        <mxCell id="4GTNjFkw8A-jL-CNcYwr-41" value="V" style="edgeLabel;html=1;align=center;verticalAlign=middle;resizable=0;points=[];" vertex="1" connectable="0" parent="4GTNjFkw8A-jL-CNcYwr-31">
          <mxGeometry x="0.3691" y="2" relative="1" as="geometry">
            <mxPoint x="-1" y="-2" as="offset" />
          </mxGeometry>
        </mxCell>
        <mxCell id="4GTNjFkw8A-jL-CNcYwr-32" style="edgeStyle=orthogonalEdgeStyle;rounded=0;orthogonalLoop=1;jettySize=auto;html=1;exitX=0;exitY=0.5;exitDx=0;exitDy=0;entryX=0.5;entryY=0;entryDx=0;entryDy=0;" edge="1" parent="1" source="4GTNjFkw8A-jL-CNcYwr-4" target="4GTNjFkw8A-jL-CNcYwr-12">
          <mxGeometry relative="1" as="geometry" />
        </mxCell>
        <mxCell id="4GTNjFkw8A-jL-CNcYwr-42" value="F" style="edgeLabel;html=1;align=center;verticalAlign=middle;resizable=0;points=[];" vertex="1" connectable="0" parent="4GTNjFkw8A-jL-CNcYwr-32">
          <mxGeometry x="0.207" y="2" relative="1" as="geometry">
            <mxPoint as="offset" />
          </mxGeometry>
        </mxCell>
        <mxCell id="4GTNjFkw8A-jL-CNcYwr-4" value="&lt;br&gt;&lt;div style=&quot;background-color: rgb(255, 255, 255); font-family: Consolas, &amp;quot;Courier New&amp;quot;, monospace; font-weight: normal; font-size: 14px; line-height: 19px; white-space: pre;&quot;&gt;&lt;div style=&quot;&quot;&gt;&lt;span style=&quot;color: rgb(59, 59, 59);&quot;&gt;n &lt;/span&gt;&lt;span style=&quot;color: rgb(0, 0, 0);&quot;&gt;&amp;gt;&lt;/span&gt;&lt;span style=&quot;color: rgb(59, 59, 59);&quot;&gt; &lt;/span&gt;&lt;span style=&quot;color: rgb(9, 134, 88);&quot;&gt;0&lt;/span&gt;&lt;span style=&quot;color: rgb(59, 59, 59);&quot;&gt; &lt;/span&gt;y&lt;span style=&quot;color: rgb(59, 59, 59);&quot;&gt; n&lt;/span&gt;&lt;span style=&quot;color: rgb(0, 0, 0);&quot;&gt;&amp;lt;=&lt;/span&gt;&lt;span style=&quot;color: rgb(9, 134, 88);&quot;&gt;14&lt;/span&gt;&lt;span style=&quot;color: rgb(59, 59, 59);&quot;&gt; &lt;/span&gt;y&lt;span style=&quot;color: rgb(59, 59, 59);&quot;&gt; n &lt;/span&gt;&lt;span style=&quot;color: rgb(0, 0, 0);&quot;&gt;!=&lt;/span&gt;&lt;span style=&quot;color: rgb(59, 59, 59);&quot;&gt; &lt;/span&gt;&lt;span style=&quot;color: rgb(9, 134, 88);&quot;&gt;1&lt;/span&gt;&lt;/div&gt;&lt;/div&gt;&lt;div&gt;&lt;br/&gt;&lt;/div&gt;" style="rhombus;whiteSpace=wrap;html=1;" vertex="1" parent="1">
          <mxGeometry x="314.5" y="230" width="217" height="80" as="geometry" />
        </mxCell>
        <mxCell id="4GTNjFkw8A-jL-CNcYwr-34" value="" style="edgeStyle=orthogonalEdgeStyle;rounded=0;orthogonalLoop=1;jettySize=auto;html=1;" edge="1" parent="1" source="4GTNjFkw8A-jL-CNcYwr-5" target="4GTNjFkw8A-jL-CNcYwr-7">
          <mxGeometry relative="1" as="geometry" />
        </mxCell>
        <mxCell id="4GTNjFkw8A-jL-CNcYwr-5" value="definir i = n-1" style="rounded=0;whiteSpace=wrap;html=1;" vertex="1" parent="1">
          <mxGeometry x="580" y="320" width="120" height="60" as="geometry" />
        </mxCell>
        <mxCell id="4GTNjFkw8A-jL-CNcYwr-36" value="" style="edgeStyle=orthogonalEdgeStyle;rounded=0;orthogonalLoop=1;jettySize=auto;html=1;" edge="1" parent="1" source="4GTNjFkw8A-jL-CNcYwr-6" target="4GTNjFkw8A-jL-CNcYwr-8">
          <mxGeometry relative="1" as="geometry" />
        </mxCell>
        <mxCell id="4GTNjFkw8A-jL-CNcYwr-6" value="definir factor = i - 1" style="rounded=0;whiteSpace=wrap;html=1;" vertex="1" parent="1">
          <mxGeometry x="580" y="490" width="120" height="60" as="geometry" />
        </mxCell>
        <mxCell id="4GTNjFkw8A-jL-CNcYwr-35" value="" style="edgeStyle=orthogonalEdgeStyle;rounded=0;orthogonalLoop=1;jettySize=auto;html=1;" edge="1" parent="1" source="4GTNjFkw8A-jL-CNcYwr-7" target="4GTNjFkw8A-jL-CNcYwr-6">
          <mxGeometry relative="1" as="geometry" />
        </mxCell>
        <mxCell id="4GTNjFkw8A-jL-CNcYwr-7" value="definir result =n * i" style="rounded=0;whiteSpace=wrap;html=1;" vertex="1" parent="1">
          <mxGeometry x="580" y="410" width="120" height="60" as="geometry" />
        </mxCell>
        <mxCell id="4GTNjFkw8A-jL-CNcYwr-37" value="" style="edgeStyle=orthogonalEdgeStyle;rounded=0;orthogonalLoop=1;jettySize=auto;html=1;" edge="1" parent="1" source="4GTNjFkw8A-jL-CNcYwr-8" target="4GTNjFkw8A-jL-CNcYwr-9">
          <mxGeometry relative="1" as="geometry" />
        </mxCell>
        <mxCell id="4GTNjFkw8A-jL-CNcYwr-8" value="&#xa;&lt;div style=&quot;color: #3b3b3b;background-color: #ffffff;font-family: Consolas, &#39;Courier New&#39;, monospace;font-weight: normal;font-size: 14px;line-height: 19px;white-space: pre;&quot;&gt;&lt;div&gt;&lt;span style=&quot;color: #3b3b3b;&quot;&gt;factor &lt;/span&gt;&lt;span style=&quot;color: #000000;&quot;&gt;&amp;gt;&lt;/span&gt;&lt;span style=&quot;color: #3b3b3b;&quot;&gt; &lt;/span&gt;&lt;span style=&quot;color: #098658;&quot;&gt;0&lt;/span&gt;&lt;/div&gt;&lt;/div&gt;&#xa;&#xa;" style="rhombus;whiteSpace=wrap;html=1;" vertex="1" parent="1">
          <mxGeometry x="575" y="600" width="130" height="80" as="geometry" />
        </mxCell>
        <mxCell id="4GTNjFkw8A-jL-CNcYwr-38" value="" style="edgeStyle=orthogonalEdgeStyle;rounded=0;orthogonalLoop=1;jettySize=auto;html=1;" edge="1" parent="1" source="4GTNjFkw8A-jL-CNcYwr-9" target="4GTNjFkw8A-jL-CNcYwr-10">
          <mxGeometry relative="1" as="geometry" />
        </mxCell>
        <mxCell id="4GTNjFkw8A-jL-CNcYwr-9" value="result = result * factor" style="rounded=0;whiteSpace=wrap;html=1;" vertex="1" parent="1">
          <mxGeometry x="585" y="710" width="120" height="60" as="geometry" />
        </mxCell>
        <mxCell id="4GTNjFkw8A-jL-CNcYwr-39" style="edgeStyle=orthogonalEdgeStyle;rounded=0;orthogonalLoop=1;jettySize=auto;html=1;exitX=1;exitY=0.5;exitDx=0;exitDy=0;" edge="1" parent="1" source="4GTNjFkw8A-jL-CNcYwr-10" target="4GTNjFkw8A-jL-CNcYwr-11">
          <mxGeometry relative="1" as="geometry" />
        </mxCell>
        <mxCell id="4GTNjFkw8A-jL-CNcYwr-40" value="V" style="edgeLabel;html=1;align=center;verticalAlign=middle;resizable=0;points=[];" vertex="1" connectable="0" parent="4GTNjFkw8A-jL-CNcYwr-39">
          <mxGeometry x="-0.0545" y="-1" relative="1" as="geometry">
            <mxPoint as="offset" />
          </mxGeometry>
        </mxCell>
        <mxCell id="4GTNjFkw8A-jL-CNcYwr-10" value="factor = 1" style="rhombus;whiteSpace=wrap;html=1;" vertex="1" parent="1">
          <mxGeometry x="600" y="820" width="80" height="80" as="geometry" />
        </mxCell>
        <mxCell id="4GTNjFkw8A-jL-CNcYwr-43" style="edgeStyle=orthogonalEdgeStyle;rounded=0;orthogonalLoop=1;jettySize=auto;html=1;exitX=1;exitY=0.5;exitDx=0;exitDy=0;entryX=0.5;entryY=0;entryDx=0;entryDy=0;" edge="1" parent="1" source="4GTNjFkw8A-jL-CNcYwr-11" target="4GTNjFkw8A-jL-CNcYwr-4">
          <mxGeometry relative="1" as="geometry">
            <Array as="points">
              <mxPoint x="800" y="950" />
              <mxPoint x="800" y="210" />
              <mxPoint x="423" y="210" />
            </Array>
          </mxGeometry>
        </mxCell>
        <mxCell id="4GTNjFkw8A-jL-CNcYwr-44" value="factor = factor - 1" style="edgeLabel;html=1;align=center;verticalAlign=middle;resizable=0;points=[];" vertex="1" connectable="0" parent="4GTNjFkw8A-jL-CNcYwr-43">
          <mxGeometry x="-0.312" y="3" relative="1" as="geometry">
            <mxPoint as="offset" />
          </mxGeometry>
        </mxCell>
        <mxCell id="4GTNjFkw8A-jL-CNcYwr-11" value="mostrar result" style="shape=parallelogram;perimeter=parallelogramPerimeter;whiteSpace=wrap;html=1;fixedSize=1;" vertex="1" parent="1">
          <mxGeometry x="670" y="920" width="120" height="60" as="geometry" />
        </mxCell>
        <mxCell id="4GTNjFkw8A-jL-CNcYwr-23" style="edgeStyle=orthogonalEdgeStyle;rounded=0;orthogonalLoop=1;jettySize=auto;html=1;exitX=0;exitY=0.5;exitDx=0;exitDy=0;" edge="1" parent="1" source="4GTNjFkw8A-jL-CNcYwr-12" target="4GTNjFkw8A-jL-CNcYwr-14">
          <mxGeometry relative="1" as="geometry" />
        </mxCell>
        <mxCell id="4GTNjFkw8A-jL-CNcYwr-30" value="F" style="edgeLabel;html=1;align=center;verticalAlign=middle;resizable=0;points=[];" vertex="1" connectable="0" parent="4GTNjFkw8A-jL-CNcYwr-23">
          <mxGeometry x="0.5289" y="-1" relative="1" as="geometry">
            <mxPoint as="offset" />
          </mxGeometry>
        </mxCell>
        <mxCell id="4GTNjFkw8A-jL-CNcYwr-24" style="edgeStyle=orthogonalEdgeStyle;rounded=0;orthogonalLoop=1;jettySize=auto;html=1;exitX=1;exitY=0.5;exitDx=0;exitDy=0;" edge="1" parent="1" source="4GTNjFkw8A-jL-CNcYwr-12" target="4GTNjFkw8A-jL-CNcYwr-13">
          <mxGeometry relative="1" as="geometry" />
        </mxCell>
        <mxCell id="4GTNjFkw8A-jL-CNcYwr-29" value="V" style="edgeLabel;html=1;align=center;verticalAlign=middle;resizable=0;points=[];" vertex="1" connectable="0" parent="4GTNjFkw8A-jL-CNcYwr-24">
          <mxGeometry x="0.0213" y="-2" relative="1" as="geometry">
            <mxPoint as="offset" />
          </mxGeometry>
        </mxCell>
        <mxCell id="4GTNjFkw8A-jL-CNcYwr-12" value="&#xa;&lt;div style=&quot;color: #3b3b3b;background-color: #ffffff;font-family: Consolas, &#39;Courier New&#39;, monospace;font-weight: normal;font-size: 14px;line-height: 19px;white-space: pre;&quot;&gt;&lt;div&gt;&lt;span style=&quot;color: #3b3b3b;&quot;&gt;n &lt;/span&gt;&lt;span style=&quot;color: #000000;&quot;&gt;&amp;gt;&lt;/span&gt;&lt;span style=&quot;color: #3b3b3b;&quot;&gt; &lt;/span&gt;&lt;span style=&quot;color: #098658;&quot;&gt;14&lt;/span&gt;&lt;/div&gt;&lt;/div&gt;&#xa;&#xa;" style="rhombus;whiteSpace=wrap;html=1;" vertex="1" parent="1">
          <mxGeometry x="200" y="310" width="80" height="80" as="geometry" />
        </mxCell>
        <mxCell id="4GTNjFkw8A-jL-CNcYwr-49" style="edgeStyle=orthogonalEdgeStyle;rounded=0;orthogonalLoop=1;jettySize=auto;html=1;exitX=0.5;exitY=1;exitDx=0;exitDy=0;" edge="1" parent="1" source="4GTNjFkw8A-jL-CNcYwr-13" target="4GTNjFkw8A-jL-CNcYwr-45">
          <mxGeometry relative="1" as="geometry" />
        </mxCell>
        <mxCell id="4GTNjFkw8A-jL-CNcYwr-13" value="mostrar&amp;nbsp;&lt;span style=&quot;color: rgb(163, 21, 21); background-color: rgb(255, 255, 255); font-family: Consolas, &amp;quot;Courier New&amp;quot;, monospace; font-size: 14px; white-space: pre;&quot;&gt;&quot;El numero es muy grande. Intentelo de nuevo&quot;&lt;/span&gt;" style="shape=parallelogram;perimeter=parallelogramPerimeter;whiteSpace=wrap;html=1;fixedSize=1;" vertex="1" parent="1">
          <mxGeometry x="145" y="420" width="430" height="60" as="geometry" />
        </mxCell>
        <mxCell id="4GTNjFkw8A-jL-CNcYwr-21" style="edgeStyle=orthogonalEdgeStyle;rounded=0;orthogonalLoop=1;jettySize=auto;html=1;exitX=0;exitY=0.5;exitDx=0;exitDy=0;" edge="1" parent="1" source="4GTNjFkw8A-jL-CNcYwr-14" target="4GTNjFkw8A-jL-CNcYwr-16">
          <mxGeometry relative="1" as="geometry" />
        </mxCell>
        <mxCell id="4GTNjFkw8A-jL-CNcYwr-28" value="F" style="edgeLabel;html=1;align=center;verticalAlign=middle;resizable=0;points=[];" vertex="1" connectable="0" parent="4GTNjFkw8A-jL-CNcYwr-21">
          <mxGeometry x="0.1429" y="-4" relative="1" as="geometry">
            <mxPoint x="3" y="-4" as="offset" />
          </mxGeometry>
        </mxCell>
        <mxCell id="4GTNjFkw8A-jL-CNcYwr-22" style="edgeStyle=orthogonalEdgeStyle;rounded=0;orthogonalLoop=1;jettySize=auto;html=1;exitX=1;exitY=0.5;exitDx=0;exitDy=0;" edge="1" parent="1" source="4GTNjFkw8A-jL-CNcYwr-14" target="4GTNjFkw8A-jL-CNcYwr-15">
          <mxGeometry relative="1" as="geometry" />
        </mxCell>
        <mxCell id="4GTNjFkw8A-jL-CNcYwr-27" value="V" style="edgeLabel;html=1;align=center;verticalAlign=middle;resizable=0;points=[];" vertex="1" connectable="0" parent="4GTNjFkw8A-jL-CNcYwr-22">
          <mxGeometry x="-0.0567" y="-2" relative="1" as="geometry">
            <mxPoint as="offset" />
          </mxGeometry>
        </mxCell>
        <mxCell id="4GTNjFkw8A-jL-CNcYwr-14" value="n = 1" style="rhombus;whiteSpace=wrap;html=1;" vertex="1" parent="1">
          <mxGeometry x="-50" y="410" width="80" height="80" as="geometry" />
        </mxCell>
        <mxCell id="4GTNjFkw8A-jL-CNcYwr-48" style="edgeStyle=orthogonalEdgeStyle;rounded=0;orthogonalLoop=1;jettySize=auto;html=1;exitX=0.5;exitY=1;exitDx=0;exitDy=0;" edge="1" parent="1" source="4GTNjFkw8A-jL-CNcYwr-15" target="4GTNjFkw8A-jL-CNcYwr-45">
          <mxGeometry relative="1" as="geometry" />
        </mxCell>
        <mxCell id="4GTNjFkw8A-jL-CNcYwr-15" value="mostrar 1" style="shape=parallelogram;perimeter=parallelogramPerimeter;whiteSpace=wrap;html=1;fixedSize=1;" vertex="1" parent="1">
          <mxGeometry x="30" y="510" width="120" height="60" as="geometry" />
        </mxCell>
        <mxCell id="4GTNjFkw8A-jL-CNcYwr-19" style="edgeStyle=orthogonalEdgeStyle;rounded=0;orthogonalLoop=1;jettySize=auto;html=1;exitX=0;exitY=0.5;exitDx=0;exitDy=0;" edge="1" parent="1" source="4GTNjFkw8A-jL-CNcYwr-16" target="4GTNjFkw8A-jL-CNcYwr-18">
          <mxGeometry relative="1" as="geometry" />
        </mxCell>
        <mxCell id="4GTNjFkw8A-jL-CNcYwr-26" value="F" style="edgeLabel;html=1;align=center;verticalAlign=middle;resizable=0;points=[];" vertex="1" connectable="0" parent="4GTNjFkw8A-jL-CNcYwr-19">
          <mxGeometry x="0.5529" y="-2" relative="1" as="geometry">
            <mxPoint as="offset" />
          </mxGeometry>
        </mxCell>
        <mxCell id="4GTNjFkw8A-jL-CNcYwr-20" style="edgeStyle=orthogonalEdgeStyle;rounded=0;orthogonalLoop=1;jettySize=auto;html=1;exitX=1;exitY=0.5;exitDx=0;exitDy=0;" edge="1" parent="1" source="4GTNjFkw8A-jL-CNcYwr-16" target="4GTNjFkw8A-jL-CNcYwr-17">
          <mxGeometry relative="1" as="geometry" />
        </mxCell>
        <mxCell id="4GTNjFkw8A-jL-CNcYwr-25" value="V" style="edgeLabel;html=1;align=center;verticalAlign=middle;resizable=0;points=[];" vertex="1" connectable="0" parent="4GTNjFkw8A-jL-CNcYwr-20">
          <mxGeometry x="-0.14" relative="1" as="geometry">
            <mxPoint as="offset" />
          </mxGeometry>
        </mxCell>
        <mxCell id="4GTNjFkw8A-jL-CNcYwr-16" value="n = 0" style="rhombus;whiteSpace=wrap;html=1;" vertex="1" parent="1">
          <mxGeometry x="-170" y="510" width="80" height="80" as="geometry" />
        </mxCell>
        <mxCell id="4GTNjFkw8A-jL-CNcYwr-47" style="edgeStyle=orthogonalEdgeStyle;rounded=0;orthogonalLoop=1;jettySize=auto;html=1;exitX=0.5;exitY=1;exitDx=0;exitDy=0;" edge="1" parent="1" source="4GTNjFkw8A-jL-CNcYwr-17" target="4GTNjFkw8A-jL-CNcYwr-45">
          <mxGeometry relative="1" as="geometry" />
        </mxCell>
        <mxCell id="4GTNjFkw8A-jL-CNcYwr-17" value="mostrar 1" style="shape=parallelogram;perimeter=parallelogramPerimeter;whiteSpace=wrap;html=1;fixedSize=1;" vertex="1" parent="1">
          <mxGeometry x="-110" y="610" width="120" height="60" as="geometry" />
        </mxCell>
        <mxCell id="4GTNjFkw8A-jL-CNcYwr-46" style="edgeStyle=orthogonalEdgeStyle;rounded=0;orthogonalLoop=1;jettySize=auto;html=1;exitX=0.5;exitY=1;exitDx=0;exitDy=0;" edge="1" parent="1" source="4GTNjFkw8A-jL-CNcYwr-18" target="4GTNjFkw8A-jL-CNcYwr-45">
          <mxGeometry relative="1" as="geometry" />
        </mxCell>
        <mxCell id="4GTNjFkw8A-jL-CNcYwr-18" value="mostrar&amp;nbsp;&lt;span style=&quot;color: rgb(163, 21, 21); background-color: rgb(255, 255, 255); font-family: Consolas, &amp;quot;Courier New&amp;quot;, monospace; font-size: 14px; white-space: pre;&quot;&gt;&quot;El numero es negativo. Intentelo de nuevo&quot;&lt;/span&gt;" style="shape=parallelogram;perimeter=parallelogramPerimeter;whiteSpace=wrap;html=1;fixedSize=1;" vertex="1" parent="1">
          <mxGeometry x="-600" y="610" width="420" height="60" as="geometry" />
        </mxCell>
        <mxCell id="4GTNjFkw8A-jL-CNcYwr-45" value="FinAlgoritmo" style="ellipse;whiteSpace=wrap;html=1;" vertex="1" parent="1">
          <mxGeometry x="-60" y="870" width="120" height="80" as="geometry" />
        </mxCell>
      </root>
    </mxGraphModel>
  </diagram>
</mxfile>
